<mxfile host="app.diagrams.net" modified="2023-08-30T02:37:21.944Z" agent="Mozilla/5.0 (Macintosh; Intel Mac OS X 10_15_7) AppleWebKit/605.1.15 (KHTML, like Gecko) Version/16.6 Safari/605.1.15" version="21.6.9" etag="gZG2mtLMCaanNNlvDriV" type="github">
  <diagram name="第 1 页" id="zXcJVCyWCi9XS64Yp-L6">
    <mxGraphModel>
      <root>
        <mxCell id="0" />
        <mxCell id="1" parent="0" />
      </root>
    </mxGraphModel>
  </diagram>
</mxfile>
